<?xml version="1.0" encoding="utf-8"?>
<!-- Generator: Adobe Illustrator 15.1.0, SVG Export Plug-In  -->
<!DOCTYPE svg PUBLIC "-//W3C//DTD SVG 1.1//EN" "http://www.w3.org/Graphics/SVG/1.1/DTD/svg11.dtd" [
	<!ENTITY ns_flows "http://ns.adobe.com/Flows/1.0/">
]>
<svg version="1.1"
	 xmlns="http://www.w3.org/2000/svg" xmlns:xlink="http://www.w3.org/1999/xlink" xmlns:a="http://ns.adobe.com/AdobeSVGViewerExtensions/3.0/"
	 x="0px" y="0px" width="21px" height="21px" viewBox="0 0 21 21" enable-background="new 0 0 21 21" xml:space="preserve">
<defs>
</defs>
<path fill="#465262" d="M6.937,10.085c2.782,0,5.046-2.261,5.046-5.042C11.983,2.263,9.718,0,6.937,0S1.891,2.263,1.891,5.043
	C1.891,7.824,4.155,10.085,6.937,10.085z M6.937,1.261c2.086,0,3.784,1.697,3.784,3.782S9.023,8.825,6.937,8.825
	S3.153,7.128,3.153,5.043S4.85,1.261,6.937,1.261z"/>
<path fill="#465262" d="M6.937,11.346C3.111,11.346,0,14.456,0,18.279c0,0.349,0.282,0.632,0.63,0.632
	c0.349,0,0.631-0.283,0.631-0.632c0-3.128,2.546-5.672,5.675-5.672c3.13,0,5.676,2.544,5.676,5.672c0,0.349,0.282,0.632,0.63,0.632
	c0.35,0,0.631-0.283,0.631-0.632C13.874,14.456,10.762,11.346,6.937,11.346z"/>
<circle fill="#FFFFFF" cx="14.21" cy="15.961" r="4.615"/>
<g>
	<path fill="#5EB459" d="M11.857,13.906l2.056,3.475c2.13-3.325,4.521-6.24,6.688-7.922c0.486-0.447,1.233-0.187,0.71,0.3
		c-2.429,2.503-4.297,5.344-6.203,9.79c-0.747,0.523-1.606,0.785-2.018,0.299l-2.691-4.82C10.026,14.43,11.333,13.047,11.857,13.906
		z"/>
</g>
</svg>
