<?xml version="1.0" encoding="utf-8"?>
<!-- Generator: Adobe Illustrator 15.1.0, SVG Export Plug-In  -->
<!DOCTYPE svg PUBLIC "-//W3C//DTD SVG 1.1//EN" "http://www.w3.org/Graphics/SVG/1.1/DTD/svg11.dtd" [
	<!ENTITY ns_flows "http://ns.adobe.com/Flows/1.0/">
]>
<svg version="1.1"
	 xmlns="http://www.w3.org/2000/svg" xmlns:xlink="http://www.w3.org/1999/xlink" xmlns:a="http://ns.adobe.com/AdobeSVGViewerExtensions/3.0/"
	 x="0px" y="0px" width="21px" height="22px" viewBox="-1.181 -0.189 21 22" enable-background="new -1.181 -0.189 21 22"
	 xml:space="preserve">
<defs>
</defs>
<path fill="#465262" d="M6.937,10.086c2.782,0,5.046-2.262,5.046-5.042C11.983,2.263,9.718,0,6.937,0
	C4.154,0,1.891,2.263,1.891,5.044C1.891,7.824,4.154,10.086,6.937,10.086z M6.937,1.262c2.086,0,3.784,1.697,3.784,3.782
	S9.022,8.826,6.937,8.826c-2.086,0-3.784-1.697-3.784-3.782S4.85,1.262,6.937,1.262z"/>
<path fill="#465262" d="M6.937,11.347C3.111,11.347,0,14.457,0,18.279c0,0.35,0.282,0.632,0.63,0.632
	c0.349,0,0.631-0.282,0.631-0.632c0-3.127,2.546-5.671,5.675-5.671s5.676,2.544,5.676,5.671c0,0.35,0.282,0.632,0.63,0.632
	c0.349,0,0.631-0.282,0.631-0.632C13.874,14.457,10.761,11.347,6.937,11.347z"/>
<circle fill="#FFFFFF" cx="14.493" cy="16.45" r="4.615"/>
<path fill="#C1292E" d="M17.945,13.521c-0.871-0.87-2.023-1.364-3.251-1.364c-2.536,0-4.616,2.075-4.616,4.615
	c0,2.541,2.075,4.615,4.616,4.615c2.529,0,4.615-2.065,4.615-4.615C19.309,15.545,18.815,14.393,17.945,13.521z M14.694,20.288
	c-1.943,0-3.516-1.568-3.516-3.516c0-0.757,0.237-1.477,0.676-2.071l4.911,4.905C16.17,20.05,15.451,20.288,14.694,20.288z
	 M17.528,18.844l-4.905-4.911c0.595-0.438,1.314-0.676,2.071-0.676c1.943,0,3.516,1.568,3.516,3.516
	C18.209,17.529,17.971,18.249,17.528,18.844z"/>
</svg>
