<?xml version="1.0" encoding="utf-8"?>
<!-- Generator: Adobe Illustrator 15.1.0, SVG Export Plug-In  -->
<!DOCTYPE svg PUBLIC "-//W3C//DTD SVG 1.1//EN" "http://www.w3.org/Graphics/SVG/1.1/DTD/svg11.dtd" [
	<!ENTITY ns_flows "http://ns.adobe.com/Flows/1.0/">
]>
<svg version="1.1"
	 xmlns="http://www.w3.org/2000/svg" xmlns:xlink="http://www.w3.org/1999/xlink" xmlns:a="http://ns.adobe.com/AdobeSVGViewerExtensions/3.0/"
	 x="0px" y="0px" width="24px" height="23px" viewBox="0 0 24 23" enable-background="new 0 0 24 23" xml:space="preserve">
<defs>
</defs>
<path fill="#4FB050" d="M13.683,0.111c-0.118-0.095-0.272-0.132-0.42-0.099L0.384,2.984C0.158,3.036-0.002,3.239,0,3.471v16.841
	c0,0.244,0.179,0.452,0.42,0.489l12.879,1.981c0.27,0.042,0.522-0.144,0.564-0.415c0.004-0.024,0.006-0.049,0.006-0.074V0.5
	C13.869,0.348,13.801,0.206,13.683,0.111z"/>
<path fill="#4FB050" d="M23.279,20.807h-9.906c-0.273,0-0.495-0.222-0.495-0.495s0.222-0.495,0.495-0.495h9.411V2.976h-9.411
	c-0.273,0-0.495-0.222-0.495-0.496s0.222-0.495,0.495-0.495h9.906c0.273,0,0.496,0.222,0.496,0.495v17.832
	C23.775,20.585,23.553,20.807,23.279,20.807z"/>
<path fill="#FBFBFB" d="M9.411,15.854c-0.171,0-0.33-0.088-0.42-0.232L4.038,7.696C3.886,7.469,3.946,7.161,4.174,7.009
	c0.227-0.152,0.535-0.092,0.687,0.136c0.006,0.009,0.012,0.018,0.017,0.027l4.953,7.925c0.145,0.232,0.073,0.538-0.159,0.683
	C9.594,15.829,9.503,15.854,9.411,15.854z"/>
<path fill="#FBFBFB" d="M4.458,15.854c-0.274,0-0.495-0.223-0.495-0.496c0-0.093,0.026-0.184,0.076-0.262l4.953-7.925
	c0.137-0.237,0.44-0.317,0.677-0.18c0.236,0.137,0.317,0.44,0.18,0.677C9.844,7.677,9.838,7.686,9.832,7.695L4.879,15.62
	C4.788,15.766,4.629,15.854,4.458,15.854z"/>
<path fill="#4FB050" d="M17.336,20.807c-0.273,0-0.495-0.222-0.495-0.495V2.48c0-0.273,0.222-0.495,0.495-0.495
	s0.495,0.222,0.495,0.495v17.832C17.831,20.585,17.609,20.807,17.336,20.807z"/>
<path fill="#4FB050" d="M23.279,17.835h-9.906c-0.273,0-0.495-0.222-0.495-0.495s0.222-0.496,0.495-0.496h9.906
	c0.273,0,0.496,0.223,0.496,0.496S23.553,17.835,23.279,17.835z"/>
<path fill="#4FB050" d="M23.279,14.864h-9.906c-0.273,0-0.495-0.223-0.495-0.496s0.222-0.495,0.495-0.495h9.906
	c0.273,0,0.496,0.222,0.496,0.495S23.553,14.864,23.279,14.864z"/>
<path fill="#4FB050" d="M23.279,11.891h-9.906c-0.273,0-0.495-0.221-0.495-0.495c0-0.273,0.222-0.495,0.495-0.495h9.906
	c0.273,0,0.496,0.222,0.496,0.495C23.775,11.67,23.553,11.891,23.279,11.891z"/>
<path fill="#4FB050" d="M23.279,8.919h-9.906c-0.273,0-0.495-0.222-0.495-0.495s0.222-0.495,0.495-0.495h9.906
	c0.273,0,0.496,0.222,0.496,0.495S23.553,8.919,23.279,8.919z"/>
<path fill="#4FB050" d="M23.279,5.948h-9.906c-0.273,0-0.495-0.222-0.495-0.495c0-0.274,0.222-0.496,0.495-0.496h9.906
	c0.273,0,0.496,0.222,0.496,0.496C23.775,5.726,23.553,5.948,23.279,5.948z"/>
</svg>
