<?xml version="1.0" encoding="utf-8"?>
<!-- Generator: Adobe Illustrator 15.1.0, SVG Export Plug-In  -->
<!DOCTYPE svg PUBLIC "-//W3C//DTD SVG 1.1//EN" "http://www.w3.org/Graphics/SVG/1.1/DTD/svg11.dtd" [
	<!ENTITY ns_flows "http://ns.adobe.com/Flows/1.0/">
]>
<svg version="1.1"
	 xmlns="http://www.w3.org/2000/svg" xmlns:xlink="http://www.w3.org/1999/xlink" xmlns:a="http://ns.adobe.com/AdobeSVGViewerExtensions/3.0/"
	 x="0px" y="0px" width="41px" height="37px" viewBox="-7.484 -4.841 41 37" enable-background="new -7.484 -4.841 41 37"
	 xml:space="preserve">
<defs>
</defs>
<path fill="#FFFFFF" d="M4.758,8.715l3.013,2.837c0.238,0.238,0.625,0.237,0.883-0.021c0.228-0.228,0.214-0.627-0.031-0.872
	L5.599,7.811L5.896,7.45c0.74-0.901,1.342-1.854,1.789-2.832l0.134-0.292h1.745c0.345,0,0.615-0.27,0.615-0.615
	S9.908,3.097,9.563,3.097H5.688V0.615C5.688,0.27,5.419,0,5.074,0S4.459,0.27,4.459,0.615v2.482H0.615C0.271,3.097,0,3.367,0,3.711
	s0.271,0.615,0.615,0.615H6.52L6.06,5.085c-1.611,2.658-4.235,4.708-5.288,5.467c-0.343,0.238-0.419,0.618-0.231,0.907
	c0.115,0.165,0.305,0.268,0.509,0.268c0.105-0.02,0.24-0.065,0.342-0.133l0.043-0.025c0.151-0.094,1.471-1.036,2.98-2.517
	L4.758,8.715z"/>
<path fill="#FFFFFF" d="M26.258,27.563l-3.902-9.29c-0.193-0.476-0.93-0.47-1.119-0.005l-3.904,9.295
	c-0.136,0.307,0.015,0.664,0.331,0.805c0.296,0.13,0.654-0.018,0.795-0.335l0.711-1.722h5.252l0.716,1.734
	c0.099,0.23,0.31,0.371,0.56,0.371c0.068,0,0.128-0.009,0.249-0.057c0.298-0.133,0.448-0.49,0.316-0.788L26.258,27.563z
	 M19.678,25.082l2.117-5.004l2.117,5.004H19.678z"/>
<path fill="#FFFFFF" d="M14.673,4.512c3.589,0,6.508,2.919,6.508,6.507v1.3l-1.969-1.968c-0.115-0.115-0.27-0.179-0.437-0.179
	c-0.166,0-0.32,0.063-0.436,0.179c-0.236,0.236-0.236,0.636,0,0.872l3.004,3.004c0.264,0.263,0.642,0.229,0.814,0.028l3.03-3.032
	c0.236-0.236,0.236-0.636,0-0.872c-0.23-0.23-0.642-0.23-0.872,0l-1.938,1.993v-1.355c0-4.249-3.457-7.706-7.706-7.706
	c-0.345,0-0.614,0.27-0.614,0.615S14.328,4.512,14.673,4.512z"/>
<path fill="#FFFFFF" d="M13.311,25.02h-1.394c-3.57,0-6.476-2.905-6.476-6.477v-1.857l1.968,1.969c0.248,0.248,0.595,0.246,0.842,0
	c0.235-0.236,0.235-0.636,0-0.872l-3.004-3.004c-0.212-0.211-0.65-0.206-0.886,0.013l-2.99,2.991
	c-0.115,0.115-0.179,0.271-0.179,0.437s0.063,0.32,0.179,0.436c0.23,0.23,0.642,0.23,0.872,0l1.969-1.969v1.857
	c0,4.25,3.456,7.706,7.705,7.706h1.425c0.345,0,0.614-0.271,0.614-0.614C13.956,25.301,13.661,25.02,13.311,25.02z"/>
</svg>
