<?xml version="1.0" encoding="utf-8"?>
<!-- Generator: Adobe Illustrator 15.1.0, SVG Export Plug-In  -->
<!DOCTYPE svg PUBLIC "-//W3C//DTD SVG 1.1//EN" "http://www.w3.org/Graphics/SVG/1.1/DTD/svg11.dtd" [
	<!ENTITY ns_flows "http://ns.adobe.com/Flows/1.0/">
]>
<svg version="1.1"
	 xmlns="http://www.w3.org/2000/svg" xmlns:xlink="http://www.w3.org/1999/xlink" xmlns:a="http://ns.adobe.com/AdobeSVGViewerExtensions/3.0/"
	 x="0px" y="0px" width="147px" height="44px" viewBox="-2.909 -1.838 147 44" enable-background="new -2.909 -1.838 147 44"
	 xml:space="preserve">
<defs>
</defs>
<path fill="#29AAE1" d="M0,20.59c0-1.334,0.255-2.588,0.767-3.766c0.511-1.176,1.204-2.203,2.083-3.082
	c0.879-0.875,1.903-1.57,3.074-2.08c1.172-0.51,2.424-0.766,3.759-0.766c1.348,0,2.622,0.256,3.819,0.766
	c1.198,0.51,2.254,1.205,3.166,2.08c0.912,0.879,1.634,1.906,2.166,3.082c0.53,1.178,0.796,2.432,0.796,3.766v7.346
	c0,0.381-0.069,0.73-0.205,1.051c-0.136,0.318-0.323,0.6-0.563,0.836c-0.238,0.238-0.521,0.426-0.85,0.563
	c-0.328,0.135-0.676,0.203-1.045,0.203c-0.382,0-0.74-0.068-1.075-0.203c-0.334-0.137-0.628-0.324-0.88-0.563
	c-0.254-0.236-0.451-0.518-0.595-0.836c-0.144-0.32-0.214-0.67-0.214-1.051v-7.326c-0.015-0.584-0.148-1.135-0.4-1.652
	s-0.589-0.969-1.012-1.357c-0.423-0.387-0.903-0.693-1.441-0.918c-0.539-0.225-1.102-0.336-1.688-0.336s-1.136,0.105-1.646,0.316
	c-0.512,0.211-0.955,0.502-1.33,0.877s-0.675,0.813-0.899,1.316c-0.226,0.504-0.345,1.047-0.358,1.631v7.449
	c0,0.381-0.067,0.73-0.203,1.051c-0.136,0.318-0.325,0.6-0.568,0.836c-0.244,0.238-0.526,0.426-0.844,0.563
	c-0.318,0.135-0.661,0.203-1.027,0.203c-0.365,0-0.719-0.068-1.057-0.203c-0.338-0.137-0.637-0.324-0.895-0.563
	c-0.258-0.236-0.461-0.518-0.61-0.836C0.074,28.666,0,28.316,0,27.936V20.59z"/>
<path fill="#374A5A" d="M23.055,21.813v-3.344c0-5.975,3.511-9.275,10.029-9.275c6.812,0,9.945,3.051,9.945,9.275v3.344
	c0,6.018-3.426,9.277-9.945,9.277C26.272,31.09,23.055,28.039,23.055,21.813z M37.555,18.469c0-2.883-0.919-4.137-4.471-4.137
	c-3.551,0-4.555,1.254-4.555,4.137v3.344c0,2.883,1.004,4.137,4.555,4.137c3.552,0,4.471-1.254,4.471-4.137V18.469z"/>
<path fill="#374A5A" d="M45.245,12.578c0-1.672,0.417-2.174,2.048-2.508l1.713-0.377l0.502-3.301
	c0.209-1.713,0.71-2.131,2.507-2.131h0.251c1.796,0,2.174,0.377,2.174,2.172v3.26h4.762c1.881,0,2.341,0.461,2.341,2.342v0.459
	c0,1.881-0.46,2.34-2.341,2.34h-4.762v8.273c0,1.881,0.877,2.801,2.632,2.801c1.128,0,2.089-0.084,2.925-0.25
	c1.881-0.336,2.298-0.127,2.298,1.713v0.459c0,1.881-0.501,2.59-2.298,2.967c-0.711,0.166-1.713,0.25-2.925,0.25
	c-5.391,0-8.065-2.674-8.065-7.98v-8.232h-1.672c-1.672,0-2.089-0.418-2.089-2.09V12.578z"/>
<path fill="#374A5A" d="M65.764,1.129c1.295-1.297,3.301-1.297,4.597,0c1.295,1.295,1.295,3.301,0,4.596
	c-1.296,1.295-3.302,1.295-4.597,0S64.469,2.424,65.764,1.129z M65.346,12.035c0-1.881,0.459-2.342,2.34-2.342h0.752
	c1.881,0,2.34,0.461,2.34,2.342v16.213c0,1.879-0.459,2.34-2.34,2.34h-0.752c-1.881,0-2.34-0.461-2.34-2.34V12.035z"/>
<path fill="#374A5A" d="M74.665,27.328c0-1.963,0.502-2.465,2.297-1.963c1.588,0.459,3.469,0.668,5.684,0.668
	c2.467,0,3.219-0.252,3.219-1.213c0-0.709-0.42-1.043-2.633-1.922l-3.887-1.629c-2.967-1.213-4.346-2.717-4.346-5.934
	c0-4.18,2.465-6.143,8.525-6.143c1.629,0,3.092,0.166,4.428,0.5c1.84,0.461,2.299,0.92,2.299,2.76v0.416
	c0,1.881-0.502,2.342-2.34,1.881c-1.379-0.334-2.883-0.5-4.471-0.5c-2.383,0-3.094,0.334-3.094,1.127
	c0,0.627,0.377,0.879,1.715,1.42l4.346,1.715c3.301,1.295,4.805,2.926,4.805,6.268c0,4.346-2.633,6.311-8.984,6.311
	c-2.047,0-3.803-0.168-5.266-0.543c-1.838-0.461-2.297-0.92-2.297-2.76V27.328z"/>
<path fill="#374A5A" d="M95.684,1.129c1.295-1.297,3.301-1.297,4.596,0c1.295,1.295,1.295,3.301,0,4.596s-3.301,1.295-4.596,0
	C94.387,4.43,94.387,2.424,95.684,1.129z M95.266,12.035c0-1.881,0.459-2.342,2.34-2.342h0.752c1.881,0,2.34,0.461,2.34,2.342
	v16.213c0,1.879-0.459,2.34-2.34,2.34h-0.752c-1.881,0-2.34-0.461-2.34-2.34V12.035z"/>
<path fill="#374A5A" d="M103.749,12.578c0-1.631,0.418-2.131,2.047-2.508l1.713-0.377V7.98c0-5.85,2.926-7.98,8.066-7.98
	c0.668,0,1.379,0.043,2.131,0.125c1.838,0.209,2.34,0.92,2.34,2.801v0.418c0,1.838-0.377,2.088-2.34,1.879
	c-0.502-0.041-1.086-0.084-1.713-0.084c-2.049,0-3.051,0.795-3.051,2.383v2.172h4.346c1.881,0,2.34,0.461,2.34,2.342v0.459
	c0,1.881-0.459,2.34-2.34,2.34h-4.346v13.414c0,1.879-0.459,2.34-2.34,2.34h-0.752c-1.881,0-2.342-0.461-2.342-2.34V14.834h-1.67
	c-1.672,0-2.09-0.418-2.09-2.09V12.578z"/>
<path fill="#374A5A" d="M130.241,24.611c0.336,1.506,0.752,1.756,1.965,1.756c0.793,0,1.213-0.375,1.547-1.756l2.758-12.619
	c0.459-1.838,0.959-2.299,2.84-2.299h0.92c1.881,0,2.215,0.461,1.84,2.299l-4.264,18.596c-1.379,6.184-4.555,8.775-9.025,9.443
	c-1.965,0.293-2.424,0.043-2.799-1.922l-0.043-0.209c-0.459-1.797-0.125-2.256,1.588-2.633c2.465-0.543,4.012-2.006,4.555-4.346
	c-0.334,0.125-0.918,0.168-1.713,0.168c-3.469,0-4.514-1.84-5.475-5.85l-3.051-13.248c-0.375-1.838-0.041-2.299,1.84-2.299h0.918
	c1.881,0,2.383,0.461,2.842,2.299L130.241,24.611z"/>
<path fill="#29AAE1" d="M13.948,31.639c0,2.992-1.85,5.418-4.133,5.418c-2.282,0-4.134-2.426-4.134-5.418"/>
</svg>
