<?xml version="1.0" encoding="utf-8"?>
<!-- Generator: Adobe Illustrator 15.1.0, SVG Export Plug-In  -->
<!DOCTYPE svg PUBLIC "-//W3C//DTD SVG 1.1//EN" "http://www.w3.org/Graphics/SVG/1.1/DTD/svg11.dtd" [
	<!ENTITY ns_flows "http://ns.adobe.com/Flows/1.0/">
]>
<svg version="1.1"
	 xmlns="http://www.w3.org/2000/svg" xmlns:xlink="http://www.w3.org/1999/xlink" xmlns:a="http://ns.adobe.com/AdobeSVGViewerExtensions/3.0/"
	 x="0px" y="0px" width="106px" height="30px" viewBox="0 0 106 30" enable-background="new 0 0 106 30" xml:space="preserve">
<defs>
</defs>
<g>
	<g>
		<path fill="#2CAAE1" d="M0,15.414c0-0.999,0.19-1.938,0.574-2.819c0.382-0.88,0.901-1.649,1.559-2.307
			C2.791,9.633,3.559,9.112,4.435,8.73c0.878-0.382,1.814-0.573,2.813-0.573c1.01,0,1.963,0.191,2.859,0.573
			c0.897,0.382,1.688,0.902,2.371,1.558c0.682,0.657,1.223,1.427,1.621,2.307c0.396,0.882,0.596,1.82,0.596,2.819v5.499
			c0,0.285-0.052,0.547-0.153,0.787c-0.102,0.238-0.242,0.448-0.422,0.626c-0.179,0.178-0.391,0.318-0.636,0.421
			c-0.246,0.101-0.506,0.151-0.783,0.151c-0.285,0-0.554-0.051-0.805-0.151c-0.25-0.103-0.47-0.243-0.658-0.421
			c-0.19-0.178-0.338-0.388-0.445-0.626c-0.107-0.24-0.16-0.502-0.16-0.787v-5.484c-0.011-0.438-0.111-0.85-0.3-1.237
			c-0.188-0.387-0.44-0.725-0.757-1.016c-0.316-0.29-0.677-0.52-1.08-0.688s-0.824-0.252-1.263-0.252S6.383,12.315,6,12.474
			S5.285,12.85,5.005,13.13c-0.28,0.281-0.505,0.608-0.673,0.985c-0.17,0.378-0.259,0.784-0.269,1.222v5.576
			c0,0.285-0.051,0.547-0.152,0.787c-0.102,0.238-0.243,0.448-0.426,0.626s-0.394,0.318-0.632,0.421
			c-0.238,0.101-0.494,0.151-0.769,0.151c-0.273,0-0.538-0.051-0.791-0.151c-0.253-0.103-0.477-0.243-0.67-0.421
			c-0.192-0.178-0.345-0.388-0.456-0.626C0.056,21.46,0,21.198,0,20.913V15.414z"/>
		<g>
			<path fill="#374B5B" d="M17.26,16.329v-2.503c0-4.473,2.628-6.943,7.508-6.943c5.1,0,7.445,2.283,7.445,6.943v2.503
				c0,4.505-2.564,6.945-7.445,6.945C19.668,23.274,17.26,20.99,17.26,16.329z M28.114,13.826c0-2.158-0.688-3.097-3.347-3.097
				s-3.41,0.938-3.41,3.097v2.503c0,2.158,0.752,3.097,3.41,3.097s3.347-0.938,3.347-3.097V13.826z"/>
			<path fill="#374B5B" d="M33.871,9.416c0-1.251,0.313-1.627,1.533-1.877l1.282-0.282l0.376-2.472
				c0.156-1.282,0.531-1.595,1.877-1.595h0.188c1.345,0,1.628,0.282,1.628,1.626v2.44h3.564c1.408,0,1.753,0.345,1.753,1.753v0.344
				c0,1.408-0.345,1.752-1.753,1.752h-3.564v6.193c0,1.408,0.656,2.097,1.97,2.097c0.845,0,1.564-0.063,2.189-0.188
				c1.408-0.251,1.721-0.095,1.721,1.282v0.344c0,1.408-0.375,1.939-1.721,2.222c-0.532,0.124-1.281,0.187-2.189,0.187
				c-4.035,0-6.038-2.001-6.038-5.975v-6.162h-1.251c-1.252,0-1.564-0.313-1.564-1.564V9.416z"/>
			<path fill="#374B5B" d="M49.232,0.845c0.969-0.971,2.471-0.971,3.441,0c0.969,0.97,0.969,2.472,0,3.44
				c-0.971,0.97-2.473,0.97-3.441,0C48.263,3.316,48.263,1.814,49.232,0.845z M48.919,9.01c0-1.408,0.344-1.753,1.752-1.753h0.563
				c1.407,0,1.751,0.345,1.751,1.753v12.138c0,1.406-0.344,1.751-1.751,1.751h-0.563c-1.408,0-1.752-0.345-1.752-1.751V9.01z"/>
			<path fill="#374B5B" d="M55.896,20.459c0-1.47,0.376-1.846,1.72-1.47c1.189,0.344,2.596,0.5,4.255,0.5
				c1.847,0,2.409-0.188,2.409-0.908c0-0.53-0.313-0.78-1.971-1.438l-2.91-1.22c-2.221-0.908-3.253-2.034-3.253-4.442
				c0-3.129,1.845-4.598,6.382-4.598c1.22,0,2.314,0.124,3.314,0.374c1.378,0.345,1.722,0.688,1.722,2.065v0.312
				c0,1.408-0.375,1.754-1.752,1.408c-1.032-0.25-2.158-0.374-3.347-0.374c-1.783,0-2.315,0.25-2.315,0.844
				c0,0.469,0.281,0.658,1.283,1.063l3.253,1.284c2.471,0.97,3.597,2.19,3.597,4.692c0,3.253-1.97,4.724-6.726,4.724
				c-1.532,0-2.846-0.126-3.941-0.406c-1.377-0.345-1.72-0.688-1.72-2.066V20.459z"/>
			<path fill="#374B5B" d="M71.631,0.845c0.97-0.971,2.471-0.971,3.44,0c0.97,0.97,0.97,2.472,0,3.44c-0.97,0.97-2.471,0.97-3.44,0
				C70.66,3.316,70.66,1.814,71.631,0.845z M71.318,9.01c0-1.408,0.344-1.753,1.751-1.753h0.563c1.408,0,1.752,0.345,1.752,1.753
				v12.138c0,1.406-0.344,1.751-1.752,1.751h-0.563c-1.407,0-1.751-0.345-1.751-1.751V9.01z"/>
			<path fill="#374B5B" d="M77.668,9.416c0-1.221,0.313-1.595,1.533-1.877l1.282-0.282V5.975c0-4.379,2.19-5.975,6.038-5.975
				c0.5,0,1.032,0.032,1.596,0.094c1.375,0.156,1.751,0.688,1.751,2.097v0.313c0,1.376-0.282,1.563-1.751,1.407
				c-0.376-0.031-0.813-0.063-1.283-0.063c-1.533,0-2.283,0.596-2.283,1.784v1.626h3.253c1.408,0,1.752,0.345,1.752,1.753v0.344
				c0,1.408-0.344,1.752-1.752,1.752h-3.253v10.042c0,1.406-0.344,1.751-1.752,1.751h-0.563c-1.408,0-1.753-0.345-1.753-1.751
				V11.105h-1.251c-1.251,0-1.564-0.313-1.564-1.564V9.416z"/>
			<path fill="#374B5B" d="M97.502,18.425c0.25,1.127,0.563,1.314,1.47,1.314c0.595,0,0.908-0.281,1.158-1.314l2.064-9.447
				c0.344-1.376,0.719-1.721,2.127-1.721h0.688c1.408,0,1.658,0.345,1.378,1.721l-3.192,13.921c-1.032,4.63-3.409,6.57-6.757,7.07
				c-1.47,0.219-1.814,0.032-2.095-1.439l-0.032-0.156c-0.344-1.345-0.094-1.688,1.188-1.971c1.847-0.406,3.003-1.502,3.41-3.254
				c-0.25,0.094-0.688,0.126-1.282,0.126c-2.598,0-3.379-1.377-4.098-4.379l-2.284-9.918c-0.282-1.376-0.031-1.721,1.376-1.721
				h0.688c1.408,0,1.783,0.345,2.128,1.721L97.502,18.425z"/>
		</g>
	</g>
</g>
<path fill="#2CAAE1" d="M10.441,23.686c0,2.24-1.384,4.056-3.094,4.056c-1.708,0-3.095-1.815-3.095-4.056"/>
<ellipse fill="#2CAAE1" cx="7.146" cy="8.157" rx="1.869" ry="1.693"/>
</svg>
