<?xml version="1.0" encoding="utf-8"?>
<!-- Generator: Adobe Illustrator 15.1.0, SVG Export Plug-In  -->
<!DOCTYPE svg PUBLIC "-//W3C//DTD SVG 1.1//EN" "http://www.w3.org/Graphics/SVG/1.1/DTD/svg11.dtd" [
	<!ENTITY ns_flows "http://ns.adobe.com/Flows/1.0/">
]>
<svg version="1.1"
	 xmlns="http://www.w3.org/2000/svg" xmlns:xlink="http://www.w3.org/1999/xlink" xmlns:a="http://ns.adobe.com/AdobeSVGViewerExtensions/3.0/"
	 x="0px" y="0px" width="22px" height="22px" viewBox="0 0 22 22" enable-background="new 0 0 22 22" xml:space="preserve">
<defs>
</defs>
<path fill="#B72126" d="M12.119,12.136c0.164,0.138,0.346,0.274,0.527,0.401c-1.353,0.254-2.777,0.607-4.094,1.16
	c0.234-0.426,0.498-0.889,0.762-1.389c0.51-0.97,0.826-1.716,1.08-2.425C10.805,10.72,11.375,11.511,12.119,12.136z M22.051,0v22.05
	H0V0H22.051z M19.982,13.827c-0.025-0.219-0.089-0.414-0.244-0.568c-0.336-0.322-1.148-0.488-2.27-0.502
	c-0.839-0.012-1.845,0.064-2.939,0.219c-0.504-0.283-1.032-0.605-1.457-0.992c-1.07-0.994-1.961-2.373-2.516-3.92
	c0.039-0.155,0.078-0.297,0.104-0.438c0.154-0.697,0.258-2.979,0.258-2.979s-0.438,1.715-0.503,1.973
	c-0.039,0.167-0.103,0.335-0.169,0.528c-0.334-1.186-0.501-2.32-0.501-3.197c0-0.244,0.026-0.723,0.089-1.096
	c0.041-0.271,0.13-0.413,0.232-0.477c0.208,0.05,0.427,0.36,0.658,0.863c0.205,0.438,0.193,0.953,0.193,1.276
	c0,0,0.219-0.787,0.167-1.251c-0.025-0.284-0.296-1.005-0.863-0.993H10.17H9.912c-0.412,0-0.8,0.206-0.89,0.542
	C8.674,4.091,9.061,6.077,9.706,8.539L9.512,9.017c-0.489,1.212-1.121,2.411-1.662,3.482l0,0c-2.258,4.41-3.998,6.781-5.172,6.951
	v-0.053c-0.024-0.555,0.993-1.973,2.36-3.096c0.142-0.115,0.761-0.709,0.761-0.709s-0.826,0.439-1.006,0.555
	c-1.727,1.033-2.579,2.064-2.72,2.748C2.034,19.1,2.06,19.346,2.24,19.45l0.438,0.219c1.199,0.605,2.67-0.98,4.631-4.41
	c1.998-0.658,4.486-1.277,6.744-1.6c2.023,1.162,4.357,1.715,5.246,1.471c0.168-0.039,0.35-0.182,0.439-0.297
	c0.076-0.117,0.168-0.566,0.168-0.566s-0.168,0.23-0.311,0.295c-0.566,0.271-2.347-0.18-4.191-1.07
	c1.587-0.168,2.904-0.18,3.613,0.053c0.889,0.283,0.889,0.578,0.889,0.645C19.957,14.11,19.996,13.905,19.982,13.827z"/>
</svg>
