<?xml version="1.0" encoding="utf-8"?>
<!-- Generator: Adobe Illustrator 15.1.0, SVG Export Plug-In  -->
<!DOCTYPE svg PUBLIC "-//W3C//DTD SVG 1.1//EN" "http://www.w3.org/Graphics/SVG/1.1/DTD/svg11.dtd" [
	<!ENTITY ns_flows "http://ns.adobe.com/Flows/1.0/">
]>
<svg version="1.1"
	 xmlns="http://www.w3.org/2000/svg" xmlns:xlink="http://www.w3.org/1999/xlink" xmlns:a="http://ns.adobe.com/AdobeSVGViewerExtensions/3.0/"
	 x="0px" y="0px" width="7px" height="105px" viewBox="0 0 7 105" enable-background="new 0 0 7 105" xml:space="preserve">
<defs>
</defs>
<line fill="none" stroke="#010202" stroke-width="0.25" stroke-miterlimit="10" x1="0.091" y1="96.797" x2="7.405" y2="104.494"/>
<line fill="none" stroke="#010202" stroke-width="0.25" stroke-miterlimit="10" x1="0.091" y1="93.972" x2="7.405" y2="101.668"/>
<line fill="none" stroke="#010202" stroke-width="0.25" stroke-miterlimit="10" x1="0.091" y1="91.147" x2="7.405" y2="98.843"/>
<line fill="none" stroke="#010202" stroke-width="0.25" stroke-miterlimit="10" x1="0.091" y1="88.322" x2="7.405" y2="96.018"/>
<line fill="none" stroke="#010202" stroke-width="0.25" stroke-miterlimit="10" x1="0.091" y1="85.497" x2="7.405" y2="93.193"/>
<line fill="none" stroke="#010202" stroke-width="0.25" stroke-miterlimit="10" x1="0.091" y1="82.671" x2="7.405" y2="90.368"/>
<line fill="none" stroke="#010202" stroke-width="0.25" stroke-miterlimit="10" x1="0.091" y1="79.846" x2="7.405" y2="87.542"/>
<line fill="none" stroke="#010202" stroke-width="0.25" stroke-miterlimit="10" x1="0.091" y1="77.021" x2="7.405" y2="84.717"/>
<line fill="none" stroke="#010202" stroke-width="0.25" stroke-miterlimit="10" x1="0.091" y1="74.196" x2="7.405" y2="81.892"/>
<line fill="none" stroke="#010202" stroke-width="0.25" stroke-miterlimit="10" x1="0.091" y1="71.371" x2="7.405" y2="79.067"/>
<line fill="none" stroke="#010202" stroke-width="0.25" stroke-miterlimit="10" x1="0.091" y1="68.545" x2="7.405" y2="76.242"/>
<line fill="none" stroke="#010202" stroke-width="0.25" stroke-miterlimit="10" x1="0.091" y1="65.72" x2="7.405" y2="73.416"/>
<line fill="none" stroke="#010202" stroke-width="0.25" stroke-miterlimit="10" x1="0.091" y1="62.894" x2="7.405" y2="70.59"/>
<line fill="none" stroke="#010202" stroke-width="0.25" stroke-miterlimit="10" x1="0.091" y1="60.069" x2="7.405" y2="67.765"/>
<line fill="none" stroke="#010202" stroke-width="0.25" stroke-miterlimit="10" x1="0.091" y1="57.244" x2="7.405" y2="64.94"/>
<line fill="none" stroke="#010202" stroke-width="0.25" stroke-miterlimit="10" x1="0.091" y1="54.418" x2="7.405" y2="62.115"/>
<line fill="none" stroke="#010202" stroke-width="0.25" stroke-miterlimit="10" x1="0.091" y1="51.593" x2="7.405" y2="59.29"/>
<line fill="none" stroke="#010202" stroke-width="0.25" stroke-miterlimit="10" x1="0.091" y1="48.768" x2="7.405" y2="56.464"/>
<line fill="none" stroke="#010202" stroke-width="0.25" stroke-miterlimit="10" x1="0.091" y1="45.943" x2="7.405" y2="53.639"/>
<line fill="none" stroke="#010202" stroke-width="0.25" stroke-miterlimit="10" x1="0.091" y1="43.118" x2="7.405" y2="50.814"/>
<line fill="none" stroke="#010202" stroke-width="0.25" stroke-miterlimit="10" x1="0.091" y1="40.292" x2="7.405" y2="47.989"/>
<line fill="none" stroke="#010202" stroke-width="0.25" stroke-miterlimit="10" x1="0.091" y1="37.467" x2="7.405" y2="45.164"/>
<line fill="none" stroke="#010202" stroke-width="0.25" stroke-miterlimit="10" x1="0.091" y1="34.642" x2="7.405" y2="42.338"/>
<line fill="none" stroke="#010202" stroke-width="0.25" stroke-miterlimit="10" x1="0.091" y1="31.817" x2="7.405" y2="39.513"/>
<line fill="none" stroke="#010202" stroke-width="0.25" stroke-miterlimit="10" x1="0.091" y1="28.992" x2="7.405" y2="36.688"/>
<line fill="none" stroke="#010202" stroke-width="0.25" stroke-miterlimit="10" x1="0.091" y1="26.167" x2="7.405" y2="33.863"/>
<line fill="none" stroke="#010202" stroke-width="0.25" stroke-miterlimit="10" x1="0.091" y1="23.341" x2="7.405" y2="31.038"/>
<line fill="none" stroke="#010202" stroke-width="0.25" stroke-miterlimit="10" x1="0.091" y1="20.516" x2="7.405" y2="28.212"/>
<line fill="none" stroke="#010202" stroke-width="0.25" stroke-miterlimit="10" x1="0.091" y1="17.69" x2="7.405" y2="25.386"/>
<line fill="none" stroke="#010202" stroke-width="0.25" stroke-miterlimit="10" x1="0.091" y1="14.865" x2="7.405" y2="22.561"/>
<line fill="none" stroke="#010202" stroke-width="0.25" stroke-miterlimit="10" x1="0.091" y1="12.04" x2="7.405" y2="19.736"/>
<line fill="none" stroke="#010202" stroke-width="0.25" stroke-miterlimit="10" x1="0.091" y1="9.214" x2="7.405" y2="16.911"/>
<line fill="none" stroke="#010202" stroke-width="0.25" stroke-miterlimit="10" x1="0.091" y1="6.389" x2="7.405" y2="14.085"/>
<line fill="none" stroke="#010202" stroke-width="0.25" stroke-miterlimit="10" x1="0.091" y1="3.564" x2="7.405" y2="11.26"/>
<path fill="none" stroke="#010202" stroke-width="0.25" stroke-miterlimit="10" d="M0.239,0.038c0.103,0.326,0.198,0.637,0.335,0.93
	c0.135,0.274,0.274,0.625,0.43,0.733l0.915,0.962l1.829,1.925l3.657,3.848"/>
</svg>
