<?xml version="1.0" encoding="utf-8"?>
<!-- Generator: Adobe Illustrator 15.1.0, SVG Export Plug-In  -->
<!DOCTYPE svg PUBLIC "-//W3C//DTD SVG 1.1//EN" "http://www.w3.org/Graphics/SVG/1.1/DTD/svg11.dtd" [
	<!ENTITY ns_flows "http://ns.adobe.com/Flows/1.0/">
]>
<svg version="1.1"
	 xmlns="http://www.w3.org/2000/svg" xmlns:xlink="http://www.w3.org/1999/xlink" xmlns:a="http://ns.adobe.com/AdobeSVGViewerExtensions/3.0/"
	 x="0px" y="0px" width="105px" height="7px" viewBox="0 0 105 7" enable-background="new 0 0 105 7" xml:space="preserve">
<defs>
</defs>
<line fill="none" stroke="#010202" stroke-width="0.25" stroke-miterlimit="10" x1="96.797" y1="7.405" x2="104.494" y2="0.091"/>
<line fill="none" stroke="#010202" stroke-width="0.25" stroke-miterlimit="10" x1="93.972" y1="7.405" x2="101.668" y2="0.091"/>
<line fill="none" stroke="#010202" stroke-width="0.25" stroke-miterlimit="10" x1="91.147" y1="7.405" x2="98.843" y2="0.091"/>
<line fill="none" stroke="#010202" stroke-width="0.25" stroke-miterlimit="10" x1="88.322" y1="7.405" x2="96.018" y2="0.091"/>
<line fill="none" stroke="#010202" stroke-width="0.25" stroke-miterlimit="10" x1="85.497" y1="7.405" x2="93.193" y2="0.091"/>
<line fill="none" stroke="#010202" stroke-width="0.25" stroke-miterlimit="10" x1="82.671" y1="7.405" x2="90.368" y2="0.091"/>
<line fill="none" stroke="#010202" stroke-width="0.25" stroke-miterlimit="10" x1="79.846" y1="7.405" x2="87.542" y2="0.091"/>
<line fill="none" stroke="#010202" stroke-width="0.25" stroke-miterlimit="10" x1="77.021" y1="7.405" x2="84.717" y2="0.091"/>
<line fill="none" stroke="#010202" stroke-width="0.25" stroke-miterlimit="10" x1="74.196" y1="7.405" x2="81.892" y2="0.091"/>
<line fill="none" stroke="#010202" stroke-width="0.25" stroke-miterlimit="10" x1="71.371" y1="7.405" x2="79.067" y2="0.091"/>
<line fill="none" stroke="#010202" stroke-width="0.25" stroke-miterlimit="10" x1="68.545" y1="7.405" x2="76.242" y2="0.091"/>
<line fill="none" stroke="#010202" stroke-width="0.25" stroke-miterlimit="10" x1="65.72" y1="7.405" x2="73.416" y2="0.091"/>
<line fill="none" stroke="#010202" stroke-width="0.25" stroke-miterlimit="10" x1="62.894" y1="7.405" x2="70.59" y2="0.091"/>
<line fill="none" stroke="#010202" stroke-width="0.25" stroke-miterlimit="10" x1="60.069" y1="7.405" x2="67.765" y2="0.091"/>
<line fill="none" stroke="#010202" stroke-width="0.25" stroke-miterlimit="10" x1="57.244" y1="7.405" x2="64.94" y2="0.091"/>
<line fill="none" stroke="#010202" stroke-width="0.25" stroke-miterlimit="10" x1="54.418" y1="7.405" x2="62.115" y2="0.091"/>
<line fill="none" stroke="#010202" stroke-width="0.25" stroke-miterlimit="10" x1="51.593" y1="7.405" x2="59.29" y2="0.091"/>
<line fill="none" stroke="#010202" stroke-width="0.25" stroke-miterlimit="10" x1="48.768" y1="7.405" x2="56.464" y2="0.091"/>
<line fill="none" stroke="#010202" stroke-width="0.25" stroke-miterlimit="10" x1="45.943" y1="7.405" x2="53.639" y2="0.091"/>
<line fill="none" stroke="#010202" stroke-width="0.25" stroke-miterlimit="10" x1="43.118" y1="7.405" x2="50.814" y2="0.091"/>
<line fill="none" stroke="#010202" stroke-width="0.25" stroke-miterlimit="10" x1="40.292" y1="7.405" x2="47.989" y2="0.091"/>
<line fill="none" stroke="#010202" stroke-width="0.25" stroke-miterlimit="10" x1="37.467" y1="7.405" x2="45.164" y2="0.091"/>
<line fill="none" stroke="#010202" stroke-width="0.25" stroke-miterlimit="10" x1="34.642" y1="7.405" x2="42.338" y2="0.091"/>
<line fill="none" stroke="#010202" stroke-width="0.25" stroke-miterlimit="10" x1="31.817" y1="7.405" x2="39.513" y2="0.091"/>
<line fill="none" stroke="#010202" stroke-width="0.25" stroke-miterlimit="10" x1="28.992" y1="7.405" x2="36.688" y2="0.091"/>
<line fill="none" stroke="#010202" stroke-width="0.25" stroke-miterlimit="10" x1="26.167" y1="7.405" x2="33.863" y2="0.091"/>
<line fill="none" stroke="#010202" stroke-width="0.25" stroke-miterlimit="10" x1="23.341" y1="7.405" x2="31.038" y2="0.091"/>
<line fill="none" stroke="#010202" stroke-width="0.25" stroke-miterlimit="10" x1="20.516" y1="7.405" x2="28.212" y2="0.091"/>
<line fill="none" stroke="#010202" stroke-width="0.25" stroke-miterlimit="10" x1="17.69" y1="7.405" x2="25.386" y2="0.091"/>
<line fill="none" stroke="#010202" stroke-width="0.25" stroke-miterlimit="10" x1="14.865" y1="7.405" x2="22.561" y2="0.091"/>
<line fill="none" stroke="#010202" stroke-width="0.25" stroke-miterlimit="10" x1="12.04" y1="7.405" x2="19.736" y2="0.091"/>
<line fill="none" stroke="#010202" stroke-width="0.25" stroke-miterlimit="10" x1="9.214" y1="7.405" x2="16.911" y2="0.091"/>
<line fill="none" stroke="#010202" stroke-width="0.25" stroke-miterlimit="10" x1="6.389" y1="7.405" x2="14.085" y2="0.091"/>
<line fill="none" stroke="#010202" stroke-width="0.25" stroke-miterlimit="10" x1="3.564" y1="7.405" x2="11.26" y2="0.091"/>
<path fill="none" stroke="#010202" stroke-width="0.25" stroke-miterlimit="10" d="M0.038,7.257c0.326-0.103,0.637-0.198,0.93-0.335
	c0.274-0.135,0.625-0.274,0.733-0.43l0.962-0.915l1.925-1.829l3.848-3.657"/>
</svg>
