<?xml version="1.0" encoding="utf-8"?>
<!-- Generator: Adobe Illustrator 15.1.0, SVG Export Plug-In  -->
<!DOCTYPE svg PUBLIC "-//W3C//DTD SVG 1.1//EN" "http://www.w3.org/Graphics/SVG/1.1/DTD/svg11.dtd" [
	<!ENTITY ns_flows "http://ns.adobe.com/Flows/1.0/">
]>
<svg version="1.1"
	 xmlns="http://www.w3.org/2000/svg" xmlns:xlink="http://www.w3.org/1999/xlink" xmlns:a="http://ns.adobe.com/AdobeSVGViewerExtensions/3.0/"
	 x="0px" y="0px" width="27px" height="39px" viewBox="-0.278 -0.357 27 39" enable-background="new -0.278 -0.357 27 39"
	 xml:space="preserve">
<defs>
</defs>
<g>
	<g>
		<path fill="#29AAE1" d="M0,16.103c0-1.797,0.344-3.486,1.033-5.073c0.688-1.583,1.623-2.968,2.806-4.151
			C5.023,5.699,6.403,4.763,7.98,4.075c1.579-0.687,3.265-1.031,5.063-1.031c1.815,0,3.532,0.345,5.145,1.031
			c1.613,0.688,3.035,1.624,4.266,2.803c1.229,1.184,2.201,2.568,2.918,4.151c0.713,1.587,1.072,3.276,1.072,5.073v9.896
			c0,0.514-0.094,0.984-0.277,1.416c-0.182,0.43-0.436,0.808-0.76,1.127c-0.32,0.32-0.701,0.572-1.143,0.757
			c-0.443,0.182-0.912,0.274-1.408,0.274c-0.516,0-0.998-0.093-1.449-0.274c-0.449-0.185-0.846-0.437-1.186-0.757
			c-0.342-0.319-0.607-0.697-0.801-1.127c-0.193-0.432-0.289-0.902-0.289-1.416v-9.869c-0.02-0.787-0.199-1.528-0.539-2.226
			c-0.338-0.697-0.793-1.306-1.361-1.829c-0.57-0.521-1.219-0.934-1.943-1.236s-1.482-0.452-2.272-0.452s-1.53,0.142-2.218,0.426
			c-0.689,0.284-1.287,0.676-1.792,1.182c-0.505,0.505-0.909,1.094-1.212,1.773c-0.304,0.679-0.464,1.41-0.482,2.196v10.035
			c0,0.514-0.091,0.984-0.274,1.416c-0.183,0.43-0.438,0.808-0.766,1.127c-0.329,0.32-0.709,0.572-1.136,0.757
			c-0.429,0.182-0.891,0.274-1.384,0.274c-0.492,0-0.968-0.093-1.423-0.274c-0.455-0.185-0.857-0.437-1.205-0.757
			c-0.347-0.319-0.621-0.697-0.822-1.127C0.1,26.982,0,26.512,0,25.998V16.103z"/>
	</g>
</g>
<path fill="#29AAE1" d="M18.791,30.986c0,4.031-2.492,7.299-5.567,7.299s-5.569-3.268-5.569-7.299"/>
<ellipse fill="#29AAE1" cx="12.859" cy="3.044" rx="3.363" ry="3.047"/>
</svg>
