<?xml version="1.0" encoding="utf-8"?>
<!-- Generator: Adobe Illustrator 15.1.0, SVG Export Plug-In  -->
<!DOCTYPE svg PUBLIC "-//W3C//DTD SVG 1.1//EN" "http://www.w3.org/Graphics/SVG/1.1/DTD/svg11.dtd" [
	<!ENTITY ns_flows "http://ns.adobe.com/Flows/1.0/">
]>
<svg version="1.1"
	 xmlns="http://www.w3.org/2000/svg" xmlns:xlink="http://www.w3.org/1999/xlink" xmlns:a="http://ns.adobe.com/AdobeSVGViewerExtensions/3.0/"
	 x="0px" y="0px" width="128px" height="128px" viewBox="-5.82 -2.178 128 128" enable-background="new -5.82 -2.178 128 128"
	 xml:space="preserve">
<defs>
</defs>
<path d="M105.034,0H11.067C4.952,0,0,4.942,0,11.058v84.863c0,6.115,4.952,11.058,11.067,11.058h14.832
	c0.264,0.785,0.522,1.571,1.174,2.088l5.862,5.857c1.69,1.69,4.286,1.819,6.245,0.388l4.42-3.64
	c0.781-0.656,1.954-0.785,3.127-0.397c1.044,0.397,1.82,1.441,1.949,2.476l0.651,5.729c0.258,2.347,2.212,4.166,4.559,4.166h8.323
	c2.347,0,4.43-1.819,4.698-4.166l0.646-5.729c0.13-1.034,0.915-1.959,1.949-2.476c1.044-0.388,2.218-0.259,3.123,0.397l4.425,3.64
	c1.829,1.562,4.564,1.303,6.255-0.259l5.986-5.986c0.646-0.656,0.915-1.303,1.173-2.088h14.837c6.115,0,11.058-4.942,11.058-11.058
	V11.058C116.103,4.942,111.15,0,105.034,0z M11.067,5.857h94.106c2.863,0,5.2,2.337,5.2,5.201v14.836H5.857V11.058
	C5.857,8.194,8.194,5.857,11.067,5.857z M79.915,110.11l-3.639-2.993c-2.477-1.959-5.857-2.476-8.979-1.173
	c-3.128,1.293-5.211,4.027-5.475,7.159l-0.646,4.685h-6.25l-0.522-4.685c-0.388-3.132-2.476-5.986-5.593-7.288
	c-2.999-1.303-6.509-0.786-8.985,1.163l-3.639,2.993l-4.425-4.425l2.993-3.64c2.078-2.337,2.466-5.857,1.168-8.851
	c-1.298-3.122-4.037-5.201-7.16-5.469l-4.689-0.518v-6.255l4.689-0.517c3.123-0.389,5.991-2.477,7.16-5.599
	c1.298-2.993,0.781-6.504-1.168-8.979l-2.993-3.64l4.425-4.425l3.639,2.864c2.476,2.079,5.986,2.466,9.109,1.173
	c2.993-1.313,5.211-4.037,5.469-7.16l0.522-4.684h6.25l0.518,4.684c0.393,3.123,2.476,5.847,5.604,7.16
	c3.122,1.292,6.503,0.776,8.979-1.173l3.639-2.993l4.426,4.425l-2.993,3.769c-1.949,2.476-2.467,5.856-1.164,8.979
	c1.303,3.122,4.027,5.21,7.16,5.469l4.684,0.527v6.245l-4.684,0.517c-3.133,0.397-5.996,2.477-7.16,5.599
	c-1.303,2.993-0.785,6.514,1.164,8.979l2.993,3.64L79.915,110.11z M105.034,100.992H88.119l-2.218-2.734
	c-0.646-0.776-0.775-1.949-0.258-3.123c0.397-1.034,1.432-1.819,2.476-1.949l5.729-0.646c2.347-0.269,4.166-2.218,4.166-4.564
	v-8.323c0-2.347-1.819-4.426-4.166-4.555l-5.857-0.656c-1.044-0.129-1.949-0.905-2.477-1.949c-0.388-1.044-0.258-2.207,0.388-3.122
	l3.65-4.426c1.432-1.829,1.302-4.564-0.389-6.245l-5.856-5.986c-1.69-1.7-4.426-1.83-6.255-0.397l-4.425,3.649
	c-0.776,0.646-1.949,0.775-3.123,0.258c-1.034-0.517-1.819-1.303-1.949-2.476l-0.646-5.728c-0.269-2.347-2.217-4.167-4.698-4.167
	h-8.323c-2.347,0-4.425,1.819-4.559,4.167l-0.651,5.728c-0.129,1.044-0.776,1.959-1.949,2.476c-1.044,0.517-2.217,0.388-3.127-0.388
	l-4.42-3.649c-1.825-1.562-4.555-1.303-6.245,0.388l-5.862,5.857c-1.691,1.691-1.825,4.296-0.393,6.255l3.649,4.415
	c0.646,0.785,0.776,1.959,0.259,3.132c-0.388,1.034-1.432,1.82-2.476,1.949l-5.723,0.646c-2.342,0.269-4.167,2.218-4.167,4.555
	v8.333c0,2.347,1.825,4.425,4.167,4.555l5.723,0.656c1.044,0.129,1.954,0.914,2.476,2.078c0.388,1.044,0.258,2.218-0.388,3.132
	l-2.218,2.725H11.067c-2.874,0-5.21-2.336-5.21-5.2V31.751h104.517v64.169C110.245,98.784,107.898,100.992,105.034,100.992z"/>
<path d="M16.269,11.973c2.158,0,3.908,1.75,3.908,3.908c0,2.148-1.75,3.898-3.908,3.898c-2.153,0-3.908-1.75-3.908-3.898
	C12.36,13.723,14.115,11.973,16.269,11.973z"/>
<path d="M28.112,11.973c2.158,0,3.908,1.75,3.908,3.908c0,2.148-1.75,3.898-3.908,3.898s-3.898-1.75-3.898-3.898
	C24.214,13.723,25.954,11.973,28.112,11.973z"/>
<path d="M39.955,11.973c2.158,0,3.908,1.75,3.908,3.908c0,2.148-1.75,3.898-3.908,3.898c-2.153,0-3.898-1.75-3.898-3.898
	C36.057,13.723,37.802,11.973,39.955,11.973z"/>
<path d="M58.048,68.067c-8.721,0-15.747,7.03-15.747,15.751c0,8.722,7.026,15.752,15.747,15.752c8.731,0,15.751-7.03,15.751-15.752
	C73.8,75.098,66.779,68.067,58.048,68.067z M58.048,93.842c-5.464,0-9.889-4.435-9.889-9.894c0-5.47,4.425-9.895,9.889-9.895
	s9.894,4.425,9.894,9.895C67.942,89.278,63.513,93.842,58.048,93.842z"/>
</svg>
