<?xml version="1.0" encoding="utf-8"?>
<!-- Generator: Adobe Illustrator 15.1.0, SVG Export Plug-In  -->
<!DOCTYPE svg PUBLIC "-//W3C//DTD SVG 1.1//EN" "http://www.w3.org/Graphics/SVG/1.1/DTD/svg11.dtd" [
	<!ENTITY ns_flows "http://ns.adobe.com/Flows/1.0/">
]>
<svg version="1.1"
	 xmlns="http://www.w3.org/2000/svg" xmlns:xlink="http://www.w3.org/1999/xlink" xmlns:a="http://ns.adobe.com/AdobeSVGViewerExtensions/3.0/"
	 x="0px" y="0px" width="128px" height="128px" viewBox="-11.127 -1.728 128 128" enable-background="new -11.127 -1.728 128 128"
	 xml:space="preserve">
<defs>
</defs>
<path d="M10.849,105.911h22.148c0.716,10.971,10.176,19.296,21.152,18.592c9.981-0.643,17.942-8.604,18.586-18.592h22.147
	c5.995,0.013,10.861-4.854,10.861-10.85c0-2.682-0.982-5.267-2.778-7.269L93.22,76.931v-19.87
	C93.183,40.69,83.281,25.97,68.135,19.756v-4.029C68.245,7.584,62.031,0.74,53.913,0.036c-4.236-0.291-8.398,1.214-11.481,4.138
	c-3.082,2.889-4.848,6.93-4.848,11.165v4.478c-15.121,6.226-25,20.922-25.054,37.269v19.833L2.778,87.78
	c-4.005,4.454-3.635,11.323,0.819,15.34c1.996,1.796,4.587,2.779,7.263,2.779L10.849,105.911z M52.869,118.957
	c-7.427,0-13.641-5.643-14.363-13.046h28.731C66.509,113.314,60.295,118.957,52.869,118.957z M6.862,91.469l10.455-11.65
	c0.449-0.51,0.698-1.165,0.698-1.845V57.086c0.037-14.745,9.333-27.888,23.234-32.827c1.099-0.389,1.827-1.42,1.827-2.585v-6.383
	c0-5.4,4.381-9.793,9.793-9.793h0.673c5.237,0.498,9.206,4.951,9.096,10.206v5.922c0.012,1.165,0.74,2.197,1.832,2.597
	c13.896,4.915,23.191,18.046,23.24,32.803v18.207H60.016c-1.517,0-2.754,1.226-2.754,2.742c0,1.518,1.237,2.755,2.754,2.755h29.211
	l9.636,10.74c1.979,2.196,1.796,5.595-0.4,7.573c-0.982,0.886-2.27,1.371-3.592,1.371H10.849c-2.955,0-5.358-2.391-5.358-5.353
	C5.491,93.727,5.976,92.453,6.862,91.469z"/>
</svg>
