<?xml version="1.0" encoding="utf-8"?>
<!-- Generator: Adobe Illustrator 15.1.0, SVG Export Plug-In  -->
<!DOCTYPE svg PUBLIC "-//W3C//DTD SVG 1.1//EN" "http://www.w3.org/Graphics/SVG/1.1/DTD/svg11.dtd" [
	<!ENTITY ns_flows "http://ns.adobe.com/Flows/1.0/">
]>
<svg version="1.1"
	 xmlns="http://www.w3.org/2000/svg" xmlns:xlink="http://www.w3.org/1999/xlink" xmlns:a="http://ns.adobe.com/AdobeSVGViewerExtensions/3.0/"
	 x="0px" y="0px" width="128px" height="128px" viewBox="-2.259 -6.699 128 128" enable-background="new -2.259 -6.699 128 128"
	 xml:space="preserve">
<defs>
</defs>
<path d="M116.442,86.84c-5.546-3.233-12.338-2.324-16.93,2.268L81.616,78.094c0.696-1.92,1.045-4.199,1.045-6.467
	c0-9.419-6.804-17.278-15.71-18.85V27.405c5.931-1.572,10.478-6.983,10.478-13.438C77.428,6.276,71.141,0,63.459,0
	C55.78,0,49.493,6.276,49.493,13.966c0,6.456,4.542,11.867,10.475,13.438v25.373c-8.903,1.572-15.712,9.431-15.712,18.85
	c0,2.268,0.354,4.367,1.05,6.456L23.862,90.871c-4.407-4.412-11.205-5.613-16.93-2.268c-6.635,3.839-8.903,12.395-5.063,19.019
	c3.548,6.354,12.013,9.149,19.03,5.063c5.58-3.312,8.027-9.778,6.455-15.706l21.618-12.776c3.492,4.188,8.729,6.804,14.662,6.804
	c5.937,0,11.168-2.616,14.66-6.804l18.075,11.014c-1.572,5.928,0.864,12.563,6.455,15.706c6.702,3.907,15.258,1.673,19.029-5.063
	C125.345,99.235,123.078,90.679,116.442,86.84z M17.407,106.756c-2.055,1.37-7.011,1.595-9.604-2.615
	c-1.92-3.323-0.696-7.69,2.621-9.6c3.772-1.886,7.634-0.584,9.599,2.616C21.942,100.469,20.719,104.836,17.407,106.756z
	 M56.476,13.966c0-3.851,3.144-6.983,6.983-6.983s6.986,3.132,6.986,6.983c0,3.839-3.146,6.972-6.986,6.972
	S56.476,17.806,56.476,13.966z M63.459,83.854c-6.809,0-12.221-5.412-12.221-12.227c0-6.804,5.412-12.215,12.221-12.215
	c6.807,0,12.218,5.411,12.218,12.215C75.677,78.442,70.266,83.854,63.459,83.854z M115.566,102.378
	c-1.605,2.975-5.658,4.58-9.599,2.615c-3.323-1.92-4.535-6.287-2.616-9.599c1.965-3.211,5.839-4.502,9.6-2.616
	C116.262,94.688,117.486,99.055,115.566,102.378z"/>
</svg>
