<?xml version="1.0" encoding="utf-8"?>
<!-- Generator: Adobe Illustrator 15.1.0, SVG Export Plug-In  -->
<!DOCTYPE svg PUBLIC "-//W3C//DTD SVG 1.1//EN" "http://www.w3.org/Graphics/SVG/1.1/DTD/svg11.dtd" [
	<!ENTITY ns_flows "http://ns.adobe.com/Flows/1.0/">
]>
<svg version="1.1"
	 xmlns="http://www.w3.org/2000/svg" xmlns:xlink="http://www.w3.org/1999/xlink" xmlns:a="http://ns.adobe.com/AdobeSVGViewerExtensions/3.0/"
	 x="0px" y="0px" width="128px" height="128px" viewBox="-2.679 -2.679 128 128" enable-background="new -2.679 -2.679 128 128"
	 xml:space="preserve">
<defs>
</defs>
<polygon points="81.24,36.273 61.321,56.191 41.403,36.273 36.273,41.403 56.191,61.321 36.273,81.24 41.403,86.369 61.321,66.455 
	81.24,86.369 86.369,81.24 66.455,61.321 86.369,41.403 "/>
<path d="M61.321,0C27.508,0,0,27.508,0,61.321s27.508,61.321,61.321,61.321s61.321-27.508,61.321-61.321S95.135,0,61.321,0z
	 M61.321,115.387c-29.813,0-54.062-24.253-54.062-54.065S31.509,7.259,61.321,7.259s54.065,24.25,54.065,54.062
	S91.134,115.387,61.321,115.387z"/>
</svg>
