<?xml version="1.0" encoding="utf-8"?>
<!-- Generator: Adobe Illustrator 15.1.0, SVG Export Plug-In  -->
<!DOCTYPE svg PUBLIC "-//W3C//DTD SVG 1.1//EN" "http://www.w3.org/Graphics/SVG/1.1/DTD/svg11.dtd" [
	<!ENTITY ns_flows "http://ns.adobe.com/Flows/1.0/">
]>
<svg version="1.1"
	 xmlns="http://www.w3.org/2000/svg" xmlns:xlink="http://www.w3.org/1999/xlink" xmlns:a="http://ns.adobe.com/AdobeSVGViewerExtensions/3.0/"
	 x="0px" y="0px" width="128px" height="128px" viewBox="-2.074 -24.095 128 128" enable-background="new -2.074 -24.095 128 128"
	 xml:space="preserve">
<defs>
</defs>
<path d="M88.446,36.237c9.989,0,18.115-8.126,18.115-18.115C106.562,8.134,98.436,0,88.446,0C78.45,0,70.324,8.134,70.324,18.123
	C70.324,28.111,78.45,36.237,88.446,36.237z M88.446,4.533c7.491,0,13.582,6.099,13.582,13.59c0,7.492-6.091,13.59-13.582,13.59
	c-7.499,0-13.59-6.099-13.59-13.59C74.856,10.631,80.947,4.533,88.446,4.533z"/>
<path d="M32.504,48.097c9.989,0,18.123-8.126,18.123-18.115c0-9.988-8.134-18.123-18.123-18.123
	c-9.988,0-18.114,8.134-18.114,18.123C14.39,39.971,22.516,48.097,32.504,48.097z M32.504,16.392c7.496,0,13.59,6.099,13.59,13.59
	c0,7.492-6.095,13.59-13.59,13.59c-7.491,0-13.586-6.098-13.586-13.59C18.918,22.491,25.013,16.392,32.504,16.392z"/>
<path d="M121.577,64.357h-8.258c-0.692-13.12-11.579-23.587-24.873-23.587c-13.293,0-24.188,10.467-24.881,23.587h-9.931
	c-4.409-7.038-12.23-11.728-21.131-11.728c-8.893,0-16.718,4.689-21.123,11.728H2.274C1.018,64.357,0,65.371,0,66.631
	c0,1.253,1.018,2.274,2.274,2.274H9.14c-0.997,2.688-1.549,5.597-1.549,8.629c0,1.261,1.018,2.275,2.267,2.275
	c1.252,0,2.266-1.015,2.266-2.275c0-3.082,0.692-6.008,1.924-8.629c0.775-1.647,1.76-3.181,2.93-4.549
	c3.742-4.4,9.313-7.194,15.527-7.194c6.214,0,11.793,2.794,15.531,7.194c1.166,1.368,2.155,2.901,2.93,4.549
	c1.236,2.621,1.92,5.547,1.92,8.629c0,1.261,1.018,2.275,2.267,2.275c1.253,0,2.267-1.015,2.267-2.275
	c0-3.032-0.544-5.941-1.55-8.629h65.709c1.261,0,2.274-1.021,2.274-2.274C123.852,65.371,122.838,64.357,121.577,64.357z
	 M68.106,64.357c0.685-10.623,9.544-19.063,20.34-19.063c10.797,0,19.647,8.439,20.34,19.063H68.106z"/>
</svg>
