<?xml version="1.0" encoding="utf-8"?>
<!-- Generator: Adobe Illustrator 15.1.0, SVG Export Plug-In  -->
<!DOCTYPE svg PUBLIC "-//W3C//DTD SVG 1.1//EN" "http://www.w3.org/Graphics/SVG/1.1/DTD/svg11.dtd" [
	<!ENTITY ns_flows "http://ns.adobe.com/Flows/1.0/">
]>
<svg version="1.1"
	 xmlns="http://www.w3.org/2000/svg" xmlns:xlink="http://www.w3.org/1999/xlink" xmlns:a="http://ns.adobe.com/AdobeSVGViewerExtensions/3.0/"
	 x="0px" y="0px" width="128px" height="128px" viewBox="-3.035 -3.035 128 128" enable-background="new -3.035 -3.035 128 128"
	 xml:space="preserve">
<defs>
</defs>
<path d="M111.776,11.424H95.259V3.812C95.259,1.705,93.554,0,91.447,0s-3.812,1.705-3.812,3.812v7.613H64.776V3.812
	C64.776,1.705,63.071,0,60.965,0c-2.101,0-3.812,1.705-3.812,3.812v7.613H34.294V3.812C34.294,1.705,32.589,0,30.482,0
	c-2.096,0-3.812,1.705-3.812,3.812v7.613H10.17C4.55,11.424,0,15.974,0,21.588v90.177c0,5.614,4.55,10.164,10.17,10.164h101.606
	c5.604,0,10.153-4.55,10.153-10.164V21.588C121.93,15.974,117.38,11.424,111.776,11.424 M114.307,111.766
	c0,1.4-1.141,2.541-2.53,2.541H10.17c-1.401,0-2.546-1.141-2.546-2.541V21.588c0-1.401,1.146-2.541,2.546-2.541h16.501v7.624
	c0,2.106,1.716,3.812,3.812,3.812c2.107,0,3.812-1.705,3.812-3.812v-7.624h22.859v7.624c0,2.106,1.71,3.812,3.812,3.812
	c2.106,0,3.812-1.705,3.812-3.812v-7.624h22.859v7.624c0,2.106,1.705,3.812,3.812,3.812s3.812-1.705,3.812-3.812v-7.624h16.518
	c1.39,0,2.53,1.14,2.53,2.541V111.766z"/>
<rect x="26.671" y="45.718" width="15.247" height="11.435"/>
<rect x="26.671" y="64.776" width="15.247" height="11.424"/>
<rect x="26.671" y="83.824" width="15.247" height="11.424"/>
<rect x="53.353" y="83.824" width="15.235" height="11.424"/>
<rect x="53.353" y="64.776" width="15.235" height="11.424"/>
<rect x="53.353" y="45.718" width="15.235" height="11.435"/>
<rect x="80.023" y="83.824" width="15.235" height="11.424"/>
<rect x="80.023" y="64.776" width="15.235" height="11.424"/>
<rect x="80.023" y="45.718" width="15.235" height="11.435"/>
</svg>
