<?xml version="1.0" encoding="utf-8"?>
<!-- Generator: Adobe Illustrator 15.1.0, SVG Export Plug-In  -->
<!DOCTYPE svg PUBLIC "-//W3C//DTD SVG 1.1//EN" "http://www.w3.org/Graphics/SVG/1.1/DTD/svg11.dtd" [
	<!ENTITY ns_flows "http://ns.adobe.com/Flows/1.0/">
]>
<svg version="1.1"
	 xmlns="http://www.w3.org/2000/svg" xmlns:xlink="http://www.w3.org/1999/xlink" xmlns:a="http://ns.adobe.com/AdobeSVGViewerExtensions/3.0/"
	 x="0px" y="0px" width="128px" height="128px" viewBox="-2.056 -26.15 128 128" enable-background="new -2.056 -26.15 128 128"
	 xml:space="preserve">
<defs>
</defs>
<path d="M7.158,0C3.207,0,0,3.029,0,6.747v62.211C0,72.679,3.207,75.7,7.158,75.7H116.73c3.942,0,7.158-3.012,7.158-6.742V6.747
	c0-3.717-3.216-6.747-7.158-6.747H7.158L7.158,0z M7.158,6.197H116.73c0.606,0,0.966,0.355,0.966,0.549v62.211
	c0,0.216-0.381,0.545-0.966,0.545H7.158c-0.588,0-0.965-0.329-0.965-0.545V6.747C6.193,6.522,6.569,6.197,7.158,6.197z
	 M22.321,17.579c-2.129,0-3.864,1.722-3.864,3.869c0,2.129,1.735,3.865,3.864,3.865l0,0c2.142,0,3.869-1.735,3.869-3.865
	C26.19,19.301,24.463,17.579,22.321,17.579z M38.178,17.579c-2.138,0-3.869,1.722-3.869,3.869c0,2.129,1.731,3.865,3.869,3.865l0,0
	c2.133,0,3.864-1.735,3.864-3.865l0,0C42.042,19.301,40.311,17.579,38.178,17.579z M54.008,17.579c-2.142,0-3.869,1.722-3.869,3.869
	c0,2.129,1.727,3.865,3.869,3.865c2.133,0,3.864-1.735,3.864-3.865l0,0C57.872,19.301,56.141,17.579,54.008,17.579z M69.855,17.579
	c-2.134,0-3.869,1.722-3.869,3.869c0,2.129,1.735,3.865,3.869,3.865l0,0c2.138,0,3.877-1.735,3.877-3.865
	C73.732,19.301,71.993,17.579,69.855,17.579z M85.711,17.579c-2.142,0-3.868,1.722-3.868,3.869c0,2.129,1.727,3.865,3.868,3.865l0,0
	c2.129,0,3.869-1.735,3.869-3.865l0,0C89.58,19.301,87.84,17.579,85.711,17.579z M101.559,17.579c-2.138,0-3.869,1.722-3.869,3.869
	c0,2.129,1.731,3.865,3.869,3.865s3.873-1.735,3.873-3.865l0,0C105.432,19.301,103.696,17.579,101.559,17.579z M30.263,33.984
	c-2.138,0-3.865,1.735-3.865,3.864c0,2.138,1.727,3.869,3.865,3.869c2.133,0,3.873-1.73,3.873-3.869l0,0
	C34.136,35.72,32.396,33.984,30.263,33.984L30.263,33.984z M46.093,33.984c-2.138,0-3.869,1.735-3.869,3.864l0,0
	c0,2.138,1.731,3.869,3.869,3.869l0,0c2.133,0,3.864-1.73,3.864-3.869C49.957,35.72,48.226,33.984,46.093,33.984z M61.94,33.984
	c-2.133,0-3.869,1.735-3.869,3.864l0,0c0,2.138,1.735,3.869,3.869,3.869l0,0c2.142,0,3.877-1.73,3.877-3.869l0,0
	C65.817,35.72,64.082,33.984,61.94,33.984L61.94,33.984z M77.766,33.984c-2.129,0-3.868,1.735-3.868,3.864
	c0,2.138,1.739,3.869,3.868,3.869c2.143,0,3.869-1.73,3.869-3.869l0,0C81.635,35.72,79.908,33.984,77.766,33.984L77.766,33.984z
	 M93.626,33.984c-2.15,0-3.873,1.748-3.873,3.864c0,2.147,1.744,3.869,3.873,3.869c2.146,0,3.864-1.744,3.864-3.869
	C97.49,35.702,95.772,33.984,93.626,33.984L93.626,33.984z M34.309,51.18c-1.718,0-3.107,1.385-3.107,3.106
	c0,1.714,1.389,3.107,3.107,3.107H89.58c1.718,0,3.107-1.394,3.107-3.107c0-1.722-1.39-3.106-3.107-3.106H34.309z"/>
</svg>
