<?xml version="1.0" encoding="utf-8"?>
<!-- Generator: Adobe Illustrator 15.1.0, SVG Export Plug-In  -->
<!DOCTYPE svg PUBLIC "-//W3C//DTD SVG 1.1//EN" "http://www.w3.org/Graphics/SVG/1.1/DTD/svg11.dtd" [
	<!ENTITY ns_flows "http://ns.adobe.com/Flows/1.0/">
]>
<svg version="1.1"
	 xmlns="http://www.w3.org/2000/svg" xmlns:xlink="http://www.w3.org/1999/xlink" xmlns:a="http://ns.adobe.com/AdobeSVGViewerExtensions/3.0/"
	 x="0px" y="0px" width="128px" height="128px" viewBox="-2.277 -2.106 128 128" enable-background="new -2.277 -2.106 128 128"
	 xml:space="preserve">
<defs>
</defs>
<path d="M107.521,16.285c21.231,21.714,21.231,56.818,0,78.513c-20.343,19.86-52.214,21.25-73.918,3.705l-23.557,23.548
	c-2.316,2.315-6.003,2.315-8.31,0c-2.316-2.298-2.316-6.003,0-8.318l23.557-23.548C7.73,68.476,8.657,36.609,28.981,16.285
	C50.694-5.428,85.808-5.428,107.521,16.285z M99.203,24.604c-17.101-17.101-44.813-17.101-61.904,0
	c-17.091,17.082-17.091,44.798,0,61.894c17.091,17.082,44.803,17.082,61.904,0C116.284,69.402,116.284,41.686,99.203,24.604z"/>
</svg>
