<?xml version="1.0" encoding="utf-8"?>
<!-- Generator: Adobe Illustrator 15.1.0, SVG Export Plug-In  -->
<!DOCTYPE svg PUBLIC "-//W3C//DTD SVG 1.1//EN" "http://www.w3.org/Graphics/SVG/1.1/DTD/svg11.dtd" [
	<!ENTITY ns_flows "http://ns.adobe.com/Flows/1.0/">
]>
<svg version="1.1"
	 xmlns="http://www.w3.org/2000/svg" xmlns:xlink="http://www.w3.org/1999/xlink" xmlns:a="http://ns.adobe.com/AdobeSVGViewerExtensions/3.0/"
	 x="0px" y="0px" width="128px" height="128px" viewBox="-2.5 -15.757 128 128" enable-background="new -2.5 -15.757 128 128"
	 xml:space="preserve">
<defs>
</defs>
<path d="M3.313,96.485h116.363c1.834,0,3.324-1.49,3.324-3.313V3.324C123,1.49,121.51,0,119.676,0H3.313C1.49,0,0,1.49,0,3.324
	v89.849C0,94.995,1.49,96.485,3.313,96.485z M6.626,6.637h109.737v83.222H6.626V6.637z"/>
<path d="M104.237,49.739c-0.934-0.922-0.934-2.456,0-3.378c1.394-1.394,0.621-3.752-1.298-4.042l-15.257-2.498
	c-1.587-0.257-2.98,1.125-2.745,2.723l2.327,15.45c0.289,1.952,2.648,2.724,4.042,1.33l0.3-0.301c0.922-0.933,2.444-0.933,3.378,0
	l4.106,4.106c0.933,0.934,2.455,0.934,3.388,0l5.865-5.864c0.933-0.933,0.933-2.455,0-3.388L104.237,49.739z"/>
<path d="M74.098,20.897H19.063c-1.823,0-3.318,1.49-3.318,3.313v18.892c0,1.833,1.496,3.324,3.318,3.324h55.034
	c1.823,0,3.313-1.49,3.313-3.324V24.21C77.411,22.387,75.921,20.897,74.098,20.897z M70.785,39.799H22.376V27.523h48.409V39.799z"/>
<path d="M74.098,52.719H19.063c-1.823,0-3.318,1.49-3.318,3.323v18.892c0,1.834,1.496,3.313,3.318,3.313h55.034
	c1.823,0,3.313-1.479,3.313-3.313V56.042C77.411,54.209,75.921,52.719,74.098,52.719z M70.785,71.622H22.376V59.356h48.409V71.622z"
	/>
</svg>
