<?xml version="1.0" encoding="utf-8"?>
<!-- Generator: Adobe Illustrator 15.1.0, SVG Export Plug-In  -->
<!DOCTYPE svg PUBLIC "-//W3C//DTD SVG 1.1//EN" "http://www.w3.org/Graphics/SVG/1.1/DTD/svg11.dtd" [
	<!ENTITY ns_flows "http://ns.adobe.com/Flows/1.0/">
]>
<svg version="1.1"
	 xmlns="http://www.w3.org/2000/svg" xmlns:xlink="http://www.w3.org/1999/xlink" xmlns:a="http://ns.adobe.com/AdobeSVGViewerExtensions/3.0/"
	 x="0px" y="0px" width="128px" height="128px" viewBox="-2.658 -1.533 128 128" enable-background="new -2.658 -1.533 128 128"
	 xml:space="preserve">
<defs>
</defs>
<path d="M47.629,0c-1.571,0-2.888,1.472-3.043,2.76l-1.338,16.137c-3.793,1.585-7.311,3.681-10.517,6.144l-14.714-6.894
	c-1.359-0.623-3.149-0.057-3.9,1.231L0.4,43.088c-0.75,1.302-0.354,3.128,0.856,4.006L14.64,56.38
	c-0.269,1.996-0.524,4.006-0.524,6.087s0.255,4.049,0.524,6.044L1.256,77.797c-1.239,0.878-1.635,2.746-0.856,4.049l13.716,23.709
	c0.765,1.274,2.548,1.826,3.9,1.189l14.665-6.894c3.22,2.478,6.759,4.544,10.567,6.129l1.338,16.151
	c0.12,1.515,1.529,2.803,3.043,2.803h27.429c1.515,0,2.931-1.288,3.044-2.803l1.33-16.151c3.822-1.585,7.347-3.651,10.574-6.129
	l14.665,6.894c1.345,0.637,3.142,0.085,3.906-1.189l13.717-23.709c0.764-1.303,0.368-3.171-0.863-4.049l-13.377-9.286
	c0.269-1.995,0.523-3.963,0.523-6.044s-0.255-4.091-0.523-6.087l13.377-9.286c1.217-0.877,1.599-2.704,0.863-4.006l-13.717-23.71
	c-0.75-1.288-2.548-1.854-3.906-1.231l-14.708,6.894c-3.213-2.463-6.737-4.558-10.531-6.144L78.102,2.76
	C77.96,1.26,76.559,0,75.058,0H47.629z M50.438,6.101h21.803l1.245,15.089c0.085,1.161,0.906,2.222,1.996,2.619
	c4.501,1.642,8.62,4.063,12.244,7.092c0.878,0.722,2.194,0.877,3.228,0.382l13.759-6.469l10.914,18.855L103.1,52.374
	c-0.935,0.666-1.43,1.883-1.231,3.001c0.396,2.307,0.608,4.7,0.608,7.092c0,2.393-0.213,4.742-0.608,7.049
	c-0.198,1.119,0.297,2.336,1.231,3.001l12.569,8.706l-10.956,18.854l-13.759-6.469c-1.033-0.481-2.35-0.312-3.228,0.425
	c-3.624,3.029-7.743,5.407-12.244,7.049c-1.09,0.396-1.911,1.458-1.996,2.619l-1.245,15.146H50.438L49.2,103.701
	c-0.092-1.161-0.906-2.223-1.996-2.619c-4.494-1.642-8.621-4.02-12.237-7.049c-0.877-0.736-2.194-0.906-3.242-0.425l-13.759,6.469
	L7.018,81.223l12.57-8.706c0.934-0.665,1.43-1.882,1.238-3.001c-0.396-2.307-0.616-4.656-0.616-7.049
	c0-2.392,0.22-4.785,0.616-7.092c0.191-1.118-0.304-2.335-1.238-3.001L7.067,43.669l10.899-18.855l13.759,6.469
	c1.041,0.495,2.35,0.339,3.242-0.382c3.617-3.029,7.743-5.45,12.237-7.092c1.09-0.396,1.904-1.458,1.996-2.619L50.438,6.101
	L50.438,6.101z M61.345,31.991c-16.795,0-30.476,13.688-30.476,30.476S44.55,92.943,61.345,92.943
	c16.798,0,30.472-13.688,30.472-30.477S78.144,31.991,61.345,31.991z M61.345,38.092c13.5,0,24.372,10.871,24.372,24.375
	S74.846,86.842,61.345,86.842c-13.497,0-24.375-10.871-24.375-24.375S47.848,38.092,61.345,38.092z"/>
</svg>
