<?xml version="1.0" encoding="utf-8"?>
<!-- Generator: Adobe Illustrator 15.1.0, SVG Export Plug-In  -->
<!DOCTYPE svg PUBLIC "-//W3C//DTD SVG 1.1//EN" "http://www.w3.org/Graphics/SVG/1.1/DTD/svg11.dtd" [
	<!ENTITY ns_flows "http://ns.adobe.com/Flows/1.0/">
]>
<svg version="1.1"
	 xmlns="http://www.w3.org/2000/svg" xmlns:xlink="http://www.w3.org/1999/xlink" xmlns:a="http://ns.adobe.com/AdobeSVGViewerExtensions/3.0/"
	 x="0px" y="0px" width="128px" height="128px" viewBox="-1.799 -16.35 128 128" enable-background="new -1.799 -16.35 128 128"
	 xml:space="preserve">
<defs>
</defs>
<path d="M4.028,17.996L4.028,17.996l71.297-0.058c2.196,7.289,9.892,11.427,17.181,9.23c4.44-1.325,7.904-4.801,9.241-9.23
	l18.61,0.058c2.196,0,3.986-1.79,3.986-3.987c0-2.208-1.79-3.987-3.986-3.987l-18.622-0.058c-2.104-7.312-9.729-11.52-17.029-9.427
	c-4.557,1.313-8.114,4.871-9.428,9.427L3.987,10.022C1.79,10.022,0,11.812,0,14.009c0,2.208,1.79,3.987,3.987,3.987H4.028z
	 M88.542,7.988c3.277,0.012,5.939,2.674,5.939,5.952c0,3.267-2.65,5.905-5.905,5.905c-3.266,0-5.904-2.639-5.904-5.905l0,0
	C82.672,10.685,85.287,8.034,88.542,7.988z"/>
<path d="M120.38,77.594l-31.42-0.07c-2.104-7.3-9.729-11.52-17.029-9.427c-4.557,1.313-8.113,4.87-9.421,9.427l-58.481,0.07
	c-2.203,0-3.987,1.778-3.987,3.987c0,2.196,1.785,3.987,3.987,3.987l0,0l58.493-0.094c2.191,7.3,9.886,11.427,17.174,9.241
	c4.44-1.337,7.904-4.813,9.241-9.241l31.433,0.07c2.208,0,3.986-1.79,3.986-3.987c0-2.209-1.778-3.987-3.986-3.987l0,0
	L120.38,77.594z M75.731,87.323c-3.231,0.035-5.87-2.558-5.894-5.789c0-0.012,0-0.023,0-0.035c0-3.266,2.639-5.904,5.894-5.904
	c3.267,0,5.905,2.639,5.905,5.904c0,3.221-2.604,5.848-5.835,5.848c-0.023,0-0.047,0-0.059,0L75.731,87.323z"/>
<path d="M120.38,41.663L120.38,41.663l-57.679,0.058c-2.191-7.288-9.881-11.426-17.181-9.229c-4.429,1.337-7.905,4.801-9.235,9.229
	l-32.24-0.058l0,0c-2.186,0-3.976,1.779-3.976,3.976c0,2.208,1.79,3.987,3.976,3.987l32.24,0.046
	c2.098,7.313,9.724,11.531,17.023,9.428c4.557-1.313,8.114-4.871,9.427-9.428l57.679-0.058c2.197,0,3.987-1.79,3.987-3.987
	c0-2.197-1.79-3.987-3.987-3.987L120.38,41.663z M49.484,51.707c-3.255-0.059-5.859-2.709-5.847-5.964
	c0-3.266,2.639-5.905,5.894-5.905c3.267,0,5.905,2.639,5.905,5.905C55.436,49.033,52.774,51.707,49.484,51.707L49.484,51.707z"/>
</svg>
