<?xml version="1.0" encoding="utf-8"?>
<!-- Generator: Adobe Illustrator 15.1.0, SVG Export Plug-In  -->
<!DOCTYPE svg PUBLIC "-//W3C//DTD SVG 1.1//EN" "http://www.w3.org/Graphics/SVG/1.1/DTD/svg11.dtd" [
	<!ENTITY ns_flows "http://ns.adobe.com/Flows/1.0/">
]>
<svg version="1.1"
	 xmlns="http://www.w3.org/2000/svg" xmlns:xlink="http://www.w3.org/1999/xlink" xmlns:a="http://ns.adobe.com/AdobeSVGViewerExtensions/3.0/"
	 x="0px" y="0px" width="128px" height="128px" viewBox="-2.314 -18.168 128 128" enable-background="new -2.314 -18.168 128 128"
	 xml:space="preserve">
<defs>
</defs>
<path d="M7.409,76.846h108.54c4.126,0,7.414,3.288,7.414,7.414l0,0c0,4.105-3.288,7.414-7.414,7.414H7.409
	c-4.116,0-7.404-3.309-7.404-7.414l0,0C-0.142,80.134,3.293,76.846,7.409,76.846z"/>
<path d="M63.393,38.161h52.556c4.126,0,7.414,3.289,7.414,7.415l0,0c0,4.105-3.288,7.394-7.414,7.394H63.393
	c-4.115,0-7.404-3.288-7.404-7.394l0,0C55.853,41.596,59.142,38.161,63.393,38.161z"/>
<path d="M35.956,0h79.993c4.126,0,7.414,3.288,7.414,7.414l0,0c0,4.126-3.288,7.415-7.414,7.415H36.082
	c-4.105,0-7.394-3.288-7.394-7.415l0,0C28.542,3.288,31.83,0,35.956,0z"/>
</svg>
