<?xml version="1.0" encoding="utf-8"?>
<!-- Generator: Adobe Illustrator 15.1.0, SVG Export Plug-In  -->
<!DOCTYPE svg PUBLIC "-//W3C//DTD SVG 1.1//EN" "http://www.w3.org/Graphics/SVG/1.1/DTD/svg11.dtd" [
	<!ENTITY ns_flows "http://ns.adobe.com/Flows/1.0/">
]>
<svg version="1.1"
	 xmlns="http://www.w3.org/2000/svg" xmlns:xlink="http://www.w3.org/1999/xlink" xmlns:a="http://ns.adobe.com/AdobeSVGViewerExtensions/3.0/"
	 x="0px" y="0px" width="128px" height="128px" viewBox="-1.87 -1.867 128 128" enable-background="new -1.87 -1.867 128 128"
	 xml:space="preserve">
<defs>
</defs>
<path d="M45.557,66.272c18.271,0,33.147-14.858,33.147-33.13C78.704,14.87,63.828,0,45.557,0C27.285,0,12.421,14.87,12.421,33.142
	C12.421,51.414,27.285,66.272,45.557,66.272z M45.557,8.289c13.701,0,24.854,11.152,24.854,24.853
	c0,13.701-11.153,24.854-24.854,24.854S20.709,46.843,20.709,33.142C20.709,19.441,31.856,8.289,45.557,8.289z"/>
<path d="M45.557,74.56C20.435,74.56,0,94.995,0,120.117c0,2.291,1.853,4.149,4.138,4.149c2.292,0,4.145-1.858,4.145-4.149
	c0-20.552,16.723-37.269,37.274-37.269c20.558,0,37.286,16.717,37.286,37.269c0,2.291,1.847,4.149,4.138,4.149
	c2.292,0,4.139-1.858,4.139-4.149C91.119,94.995,70.679,74.56,45.557,74.56z"/>
<path d="M120.11,57.995H91.119c-2.279,0-4.139,1.847-4.139,4.138c0,2.291,1.859,4.139,4.139,4.139h28.991
	c2.292,0,4.15-1.848,4.15-4.139C124.261,59.842,122.402,57.995,120.11,57.995z"/>
<path d="M120.11,37.28H91.119c-2.279,0-4.139,1.847-4.139,4.139c0,2.291,1.859,4.15,4.139,4.15h28.991c2.292,0,4.15-1.859,4.15-4.15
	C124.261,39.127,122.402,37.28,120.11,37.28z"/>
<path d="M91.119,24.854h28.991c2.292,0,4.15-1.847,4.15-4.139c0-2.291-1.858-4.138-4.15-4.138H91.119
	c-2.279,0-4.139,1.847-4.139,4.138C86.98,23.006,88.84,24.854,91.119,24.854z"/>
</svg>
